<?xml version="1.0" encoding="UTF-8"?> <svg xmlns="http://www.w3.org/2000/svg" width="872" height="198" viewBox="0 0 872 198" fill="none"> <g filter="url(#filter0_d_136_599)"> <mask id="path-1-inside-1_136_599" fill="white"> <path fill-rule="evenodd" clip-rule="evenodd" d="M863 9H9V189H810.569L863 136.569V9Z"></path> </mask> <path d="M9 9V7.125H7.125V9H9ZM863 9H864.875V7.125H863V9ZM9 189H7.125V190.875H9V189ZM810.569 189V190.875H811.345L811.894 190.326L810.569 189ZM863 136.569L864.326 137.894L864.875 137.345V136.569H863ZM9 10.875H863V7.125H9V10.875ZM10.875 189V9H7.125V189H10.875ZM810.569 187.125H9V190.875H810.569V187.125ZM811.894 190.326L864.326 137.894L861.674 135.243L809.243 187.674L811.894 190.326ZM861.125 9V136.569H864.875V9H861.125Z" fill="url(#paint0_linear_136_599)" mask="url(#path-1-inside-1_136_599)"></path> </g> <defs> <filter id="filter0_d_136_599" x="0.875" y="0.875" width="870.25" height="196.25" filterUnits="userSpaceOnUse" color-interpolation-filters="sRGB"> <feFlood flood-opacity="0" result="BackgroundImageFix"></feFlood> <feColorMatrix in="SourceAlpha" type="matrix" values="0 0 0 0 0 0 0 0 0 0 0 0 0 0 0 0 0 0 127 0" result="hardAlpha"></feColorMatrix> <feOffset></feOffset> <feGaussianBlur stdDeviation="4.0625"></feGaussianBlur> <feComposite in2="hardAlpha" operator="out"></feComposite> <feColorMatrix type="matrix" values="0 0 0 0 0.384314 0 0 0 0 0.878431 0 0 0 0 0 0 0 0 0.46 0"></feColorMatrix> <feBlend mode="normal" in2="BackgroundImageFix" result="effect1_dropShadow_136_599"></feBlend> <feBlend mode="normal" in="SourceGraphic" in2="effect1_dropShadow_136_599" result="shape"></feBlend> </filter> <linearGradient id="paint0_linear_136_599" x1="884.687" y1="97.4114" x2="115.94" y2="215.217" gradientUnits="userSpaceOnUse"> <stop stop-color="#02D7F2"></stop> <stop offset="1" stop-color="#62E000" stop-opacity="0"></stop> </linearGradient> </defs> </svg> 