<?xml version="1.0" encoding="UTF-8"?> <svg xmlns="http://www.w3.org/2000/svg" width="55" height="55" viewBox="0 0 55 55" fill="none"> <g filter="url(#filter0_d_31_60)"> <path d="M6.25 6.25H48.75V27.5V38.1786L38.1786 48.75H27.5H6.25V6.25Z" stroke="#62E000" stroke-width="1.25" shape-rendering="crispEdges"></path> </g> <rect x="13.125" y="11.2502" width="15.3051" height="6.74213" stroke="white" stroke-width="1.25"></rect> <rect x="13.125" y="37.5005" width="15.3051" height="6.74213" stroke="#62E000" stroke-width="1.25"></rect> <path d="M33.0164 14.0232L32.6643 13.5068L31.6315 14.2109L31.9836 14.7273L33.0164 14.0232ZM36.6711 21.6023L37.0232 22.1187L38.056 21.4146L37.7039 20.8982L36.6711 21.6023ZM31.9836 14.7273L32.3742 15.3002L33.407 14.5961L33.0164 14.0232L31.9836 14.7273ZM33.1555 16.4461L33.9367 17.5919L34.9695 16.8877L34.1883 15.7419L33.1555 16.4461ZM34.718 18.7377L35.4992 19.8836L36.532 19.1794L35.7508 18.0336L34.718 18.7377ZM36.2805 21.0294L36.6711 21.6023L37.7039 20.8982L37.3133 20.3252L36.2805 21.0294Z" fill="white"></path> <path d="M36.3586 34.6482L36.7107 34.1318L37.7435 34.8359L37.3914 35.3523L36.3586 34.6482ZM32.7039 42.2273L32.3518 42.7437L31.319 42.0396L31.6711 41.5232L32.7039 42.2273ZM37.3914 35.3523L37.0008 35.9252L35.968 35.2211L36.3586 34.6482L37.3914 35.3523ZM36.2195 37.0711L35.4383 38.2169L34.4055 37.5127L35.1867 36.3669L36.2195 37.0711ZM34.657 39.3627L33.8758 40.5086L32.843 39.8044L33.6242 38.6586L34.657 39.3627ZM33.0945 41.6544L32.7039 42.2273L31.6711 41.5232L32.0617 40.9502L33.0945 41.6544Z" fill="#62E000"></path> <rect x="27.5" y="24.3755" width="15.3051" height="6.74213" stroke="#62E000" stroke-width="1.25"></rect> <defs> <filter id="filter0_d_31_60" x="0.625" y="0.625" width="53.75" height="53.75" filterUnits="userSpaceOnUse" color-interpolation-filters="sRGB"> <feFlood flood-opacity="0" result="BackgroundImageFix"></feFlood> <feColorMatrix in="SourceAlpha" type="matrix" values="0 0 0 0 0 0 0 0 0 0 0 0 0 0 0 0 0 0 127 0" result="hardAlpha"></feColorMatrix> <feOffset></feOffset> <feGaussianBlur stdDeviation="2.5"></feGaussianBlur> <feComposite in2="hardAlpha" operator="out"></feComposite> <feColorMatrix type="matrix" values="0 0 0 0 0.384314 0 0 0 0 0.878431 0 0 0 0 0 0 0 0 0.46 0"></feColorMatrix> <feBlend mode="normal" in2="BackgroundImageFix" result="effect1_dropShadow_31_60"></feBlend> <feBlend mode="normal" in="SourceGraphic" in2="effect1_dropShadow_31_60" result="shape"></feBlend> </filter> </defs> </svg> 