<?xml version="1.0" encoding="UTF-8"?> <svg xmlns="http://www.w3.org/2000/svg" width="55" height="55" viewBox="0 0 55 55" fill="none"> <g filter="url(#filter0_d_31_68)"> <path d="M6.25 6.5H48.75V27.75V38.4286L38.1786 49H27.5H6.25V6.5Z" stroke="#62E000" stroke-width="1.25" shape-rendering="crispEdges"></path> </g> <path d="M24.0625 15.7499H30.1041V21.6379H24.0625V15.7499ZM15 33.4141H21.0417V39.3021H15V33.4141ZM15 24.582H21.0417V30.47H15V24.582ZM15 15.7499H21.0417V21.6379H15V15.7499ZM33.125 15.7499H39.1666V21.6379H33.125V15.7499ZM25.5729 36.152V39.3021H28.7448L37.777 30.5142L34.5749 27.3935L25.5729 36.152ZM30.1041 27.5702V24.582H24.0625V30.47H27.1286L30.1041 27.5702ZM35.6489 26.3572L37.7861 24.2758L40.9882 27.3965L38.8539 29.4794L35.6489 26.3572Z" fill="#62E000"></path> <defs> <filter id="filter0_d_31_68" x="0.625" y="0.875" width="53.75" height="53.75" filterUnits="userSpaceOnUse" color-interpolation-filters="sRGB"> <feFlood flood-opacity="0" result="BackgroundImageFix"></feFlood> <feColorMatrix in="SourceAlpha" type="matrix" values="0 0 0 0 0 0 0 0 0 0 0 0 0 0 0 0 0 0 127 0" result="hardAlpha"></feColorMatrix> <feOffset></feOffset> <feGaussianBlur stdDeviation="2.5"></feGaussianBlur> <feComposite in2="hardAlpha" operator="out"></feComposite> <feColorMatrix type="matrix" values="0 0 0 0 0.384314 0 0 0 0 0.878431 0 0 0 0 0 0 0 0 0.46 0"></feColorMatrix> <feBlend mode="normal" in2="BackgroundImageFix" result="effect1_dropShadow_31_68"></feBlend> <feBlend mode="normal" in="SourceGraphic" in2="effect1_dropShadow_31_68" result="shape"></feBlend> </filter> </defs> </svg> 