<?xml version="1.0" encoding="UTF-8"?> <svg xmlns="http://www.w3.org/2000/svg" width="162" height="18" viewBox="0 0 162 18" fill="none"> <path d="M0 16.3315C0 17.9358 1.05882 18.4813 2.34225 17.5187L7.28342 13.8289C8.56684 12.8663 10.9412 11.9358 12.5455 11.7754L16.8128 11.3262C18.4171 11.1658 20.5027 9.97861 21.4652 8.6631L26.1176 2.37433C27.0802 1.05882 26.5348 0 24.9305 0H2.91979C1.31551 0 0 1.31551 0 2.91979V16.3315Z" fill="white"></path> <path d="M84.868 5.5508C86.8253 4.71658 91.3172 0 87.9803 0C84.6434 0 61.606 0 61.606 0C60.5472 0 60.3226 0.57754 61.1247 1.28342C61.1247 1.28342 62.9215 2.91979 66.836 3.97861C70.7504 5.03743 82.9108 6.41711 84.868 5.5508Z" fill="white"></path> <path d="M80.4073 11.3584C81.4661 11.3263 81.5623 10.9092 80.6319 10.3958L78.0008 8.98402C77.0704 8.47065 77.1666 8.18188 78.2254 8.27814C78.2254 8.27814 84.4821 9.04819 87.6265 11.23C90.7709 13.4118 91.6372 16.1712 91.6372 16.1712C91.9581 17.1979 91.3484 18.0001 90.2896 18.0001H60.5142C59.4554 18.0001 59.1987 17.3904 59.9367 16.6204C59.9367 16.6204 61.3805 15.1445 66.3217 13.3477C71.2629 11.5509 80.4073 11.3584 80.4073 11.3584Z" fill="white"></path> <path d="M28.268 17.9037C27.1129 18.2245 26.76 17.6791 27.4338 16.7165L38.76 0.705812C39.4338 -0.256755 40.5568 -0.256755 41.2306 0.705812L52.5568 16.7165C53.2306 17.6791 52.8776 18.2245 51.7225 17.9037L42.0648 14.7914C42.0648 14.7914 39.9471 14.1176 37.9258 14.7914C35.9044 15.4652 28.268 17.9037 28.268 17.9037Z" fill="white"></path> <path d="M132.77 16.1711C132.77 17.7754 133.925 18.4492 135.304 17.6791L144.834 12.4492C146.245 11.6791 148.524 11.6791 149.935 12.4492L159.465 17.6791C160.876 18.4492 161.999 17.7754 161.999 16.1711V2.8877C161.999 1.28342 160.684 0 159.112 0H135.657C134.053 0 132.77 1.31551 132.77 2.8877V16.1711V16.1711Z" fill="white"></path> <path d="M122.567 0.0640992L113.005 3.56143C111.786 4.01062 109.829 4.04271 108.609 3.59351L99.08 0.0961848C98.4703 -0.128414 98.0853 0.352869 98.5666 0.769982L105.112 6.54538C106.043 7.34752 107.101 8.91971 107.518 10.0106L110.117 17.2299C110.502 18.3208 111.144 18.2887 111.561 17.1978L114.16 9.97854C114.545 8.88763 115.636 7.34752 116.567 6.5133L123.112 0.737896C123.529 0.352869 123.208 -0.1605 122.567 0.0640992Z" fill="#62E000"></path> </svg> 