<?xml version="1.0" encoding="UTF-8"?> <svg xmlns="http://www.w3.org/2000/svg" width="629" height="67" viewBox="0 0 629 67" fill="none"> <path d="M621.415 45.6195L577.566 45.3781L564 20.012L562.5 20.012L576.73 46.8438L621.408 47.0908L621.415 45.6195Z" fill="url(#paint0_linear_181_36)"></path> <path d="M625.559 43.3618C623.957 42.3804 621.894 42.9345 620.949 44.6024C620.004 46.2683 620.538 48.4148 622.138 49.3969C623.741 50.3796 625.804 49.8255 626.747 48.1591C627.692 46.4925 627.16 44.3452 625.559 43.3618Z" fill="url(#paint1_linear_181_36)"></path> <path d="M0.998136 21.0119L562.999 21.0119L564 20.0119L0.998047 19" fill="url(#paint2_linear_181_36)"></path> <rect x="1" y="23" width="553" height="1.5" fill="#636B76"></rect> <defs> <linearGradient id="paint0_linear_181_36" x1="574.57" y1="43.3622" x2="610.559" y2="24.6926" gradientUnits="userSpaceOnUse"> <stop stop-color="white"></stop> <stop offset="1" stop-color="#CBDDFF" stop-opacity="0.32"></stop> </linearGradient> <linearGradient id="paint1_linear_181_36" x1="620.933" y1="48.1322" x2="626.879" y2="44.834" gradientUnits="userSpaceOnUse"> <stop stop-color="white"></stop> <stop offset="1" stop-color="#CBDDFF" stop-opacity="0.32"></stop> </linearGradient> <linearGradient id="paint2_linear_181_36" x1="-6656.58" y1="57.1993" x2="587.079" y2="221.581" gradientUnits="userSpaceOnUse"> <stop stop-color="white"></stop> <stop offset="1" stop-color="#CBDDFF" stop-opacity="0.32"></stop> </linearGradient> </defs> </svg> 