<?xml version="1.0" encoding="UTF-8"?> <svg xmlns="http://www.w3.org/2000/svg" width="733" height="91" viewBox="0 0 733 91" fill="none"> <mask id="path-1-inside-1_47_433" fill="white"> <path fill-rule="evenodd" clip-rule="evenodd" d="M732.801 0.078125H0.882324V90.2397H711.294L732.801 68.5482V0.078125Z"></path> </mask> <path d="M0.882324 0.078125V-1.17188H-0.367676V0.078125H0.882324ZM732.801 0.078125H734.051V-1.17188H732.801V0.078125ZM0.882324 90.2397H-0.367676V91.4897H0.882324V90.2397ZM711.294 90.2397V91.4897H711.814L712.181 91.1198L711.294 90.2397ZM732.801 68.5482L733.688 69.4283L734.051 69.0628V68.5482H732.801ZM0.882324 1.32812H732.801V-1.17188H0.882324V1.32812ZM2.13232 90.2397V0.078125H-0.367676V90.2397H2.13232ZM711.294 88.9897H0.882324V91.4897H711.294V88.9897ZM712.181 91.1198L733.688 69.4283L731.913 67.6681L710.406 89.3596L712.181 91.1198ZM731.551 0.078125V68.5482H734.051V0.078125H731.551Z" fill="#62E000" fill-opacity="0.7" mask="url(#path-1-inside-1_47_433)"></path> </svg> 