<?xml version="1.0" encoding="UTF-8"?> <svg xmlns="http://www.w3.org/2000/svg" width="55" height="55" viewBox="0 0 55 55" fill="none"> <path d="M34.9396 16.1527C34.7524 16.1527 34.5652 16.1527 34.378 16.2441L32.038 14.7808C32.038 14.049 31.3829 13.5002 30.7277 13.5002C29.9789 13.5002 29.4173 14.049 29.4173 14.7808C29.4173 15.0551 29.5109 15.238 29.6045 15.421L25.3925 20.7259C25.2053 20.5429 24.8309 20.4514 24.5501 20.4514C23.8013 20.4514 23.2397 21.0002 23.2397 21.7319V21.8234L19.3086 22.8295C19.0278 22.4637 18.6534 22.1893 18.1854 22.1893C17.4366 22.1893 16.875 22.7381 16.875 23.4698C16.875 24.2015 17.4366 24.7502 18.1854 24.7502C18.8406 24.7502 19.4022 24.2929 19.4958 23.6527L23.6141 22.6466C23.8949 22.921 24.1757 23.0125 24.5501 23.0125C25.2989 23.0125 25.8605 22.4637 25.8605 21.7319V21.6405L30.2597 16.0612C30.4469 16.1527 30.5405 16.1527 30.7277 16.1527C31.1021 16.1527 31.4765 15.9698 31.7573 15.6954L33.7228 16.9758C33.6292 17.1588 33.6292 17.3417 33.6292 17.5247C33.6292 18.2564 34.1908 18.8051 34.9396 18.8051C35.6884 18.8051 36.25 18.2564 36.25 17.5247C36.25 16.7929 35.5948 16.1527 34.9396 16.1527Z" fill="white"></path> <path d="M29.5825 27.9111L39.3463 37.6749L39.1201 37.9011L29.4121 28.084L29.2205 27.8902L29.0024 28.0537L28.7793 28.2211L28.7705 28.2277L28.7621 28.2349C27.1464 29.6352 25.0997 30.3898 22.9424 30.3898C18.0377 30.3898 13.9953 26.4007 13.9953 21.4427C13.9953 16.538 17.9844 12.4956 22.9424 12.4956C27.8471 12.4956 31.8896 16.4847 31.8896 21.4427C31.8896 23.5452 31.1343 25.6474 29.7347 27.2624L29.7275 27.2707L29.7208 27.2795L29.5535 27.5027L29.3909 27.7195L29.5825 27.9111ZM38.9537 39.3462L39.1747 39.5672L39.3957 39.3462L40.846 37.8959L41.0669 37.6749L40.846 37.4539L31.0012 27.6092C32.3315 25.862 33.0724 23.7047 33.0724 21.4427C33.0724 15.8594 28.5258 11.3127 22.9424 11.3127C17.3591 11.3127 12.8125 15.8594 12.8125 21.4427C12.8125 27.026 17.3591 31.5726 22.9424 31.5726C25.1556 31.5726 27.3115 30.8289 29.1062 29.4987L38.9537 39.3462Z" fill="#62E000" stroke="#62E000" stroke-width="0.625"></path> <g filter="url(#filter0_d_31_56)"> <path d="M6.25 6H48.75V27.25V37.9286L38.1786 48.5H27.5H6.25V6Z" stroke="#62E000" stroke-width="1.25" shape-rendering="crispEdges"></path> </g> <defs> <filter id="filter0_d_31_56" x="0.625" y="0.375" width="53.75" height="53.75" filterUnits="userSpaceOnUse" color-interpolation-filters="sRGB"> <feFlood flood-opacity="0" result="BackgroundImageFix"></feFlood> <feColorMatrix in="SourceAlpha" type="matrix" values="0 0 0 0 0 0 0 0 0 0 0 0 0 0 0 0 0 0 127 0" result="hardAlpha"></feColorMatrix> <feOffset></feOffset> <feGaussianBlur stdDeviation="2.5"></feGaussianBlur> <feComposite in2="hardAlpha" operator="out"></feComposite> <feColorMatrix type="matrix" values="0 0 0 0 0.384314 0 0 0 0 0.878431 0 0 0 0 0 0 0 0 0.46 0"></feColorMatrix> <feBlend mode="normal" in2="BackgroundImageFix" result="effect1_dropShadow_31_56"></feBlend> <feBlend mode="normal" in="SourceGraphic" in2="effect1_dropShadow_31_56" result="shape"></feBlend> </filter> </defs> </svg> 