<?xml version="1.0" encoding="UTF-8"?> <svg xmlns="http://www.w3.org/2000/svg" width="55" height="54" viewBox="0 0 55 54" fill="none"> <g filter="url(#filter0_d_31_36)"> <path d="M6.25 5.75H48.75V27V37.6786L38.1786 48.25H27.5H6.25V5.75Z" stroke="#62E000" stroke-width="1.25" shape-rendering="crispEdges"></path> </g> <path d="M22.1488 17.184C21.3313 15.7738 20.5641 12.6903 24.0355 11.6374C27.5069 10.5845 28.9408 12.9535 29.2238 14.2697V36.926C29.5696 38.3675 29.5445 41.3821 26.6768 41.9085C23.8091 42.435 22.1488 40.561 21.6772 39.5583C19.9477 39.3703 16.5644 38.2421 16.8662 35.2338C17.1681 32.2255 18.9415 31.0974 19.7905 30.9094M21.5861 15.7738C17.8204 15.7738 14.8853 23.3886 21.6772 27.055M17.8204 22.7305C14.0363 23.4826 12.7157 30.5333 17.2436 33.0716" stroke="#62E000" stroke-width="1.25"></path> <path d="M29.375 17.7721H35.1907V12.625M29.375 22H37.5742V18.2316H40.625" stroke="#62E000" stroke-width="1.25"></path> <path d="M29.375 36.2892H34.5445V40.75M29.375 32.625H36.6631V35.8909H39.375" stroke="#62E000" stroke-width="1.25"></path> <path d="M29.375 25.75H35.625" stroke="#62E000" stroke-width="1.25"></path> <path d="M29.375 28.875H38.75" stroke="#62E000" stroke-width="1.25"></path> <circle cx="35" cy="12.625" r="1.25" fill="white"></circle> <circle cx="35" cy="12.625" r="1.25" fill="white"></circle> <circle cx="35" cy="12.625" r="1.25" fill="white"></circle> <circle cx="40.625" cy="18.25" r="1.25" fill="white"></circle> <circle cx="40.625" cy="18.25" r="1.25" fill="white"></circle> <circle cx="40.625" cy="18.25" r="1.25" fill="white"></circle> <circle cx="34.375" cy="41.375" r="1.25" fill="white"></circle> <circle cx="34.375" cy="41.375" r="1.25" fill="white"></circle> <circle cx="34.375" cy="41.375" r="1.25" fill="white"></circle> <circle cx="35.625" cy="25.75" r="1.25" fill="white"></circle> <circle cx="35.625" cy="25.75" r="1.25" fill="white"></circle> <circle cx="35.625" cy="25.75" r="1.25" fill="white"></circle> <defs> <filter id="filter0_d_31_36" x="0.625" y="0.125" width="53.75" height="53.75" filterUnits="userSpaceOnUse" color-interpolation-filters="sRGB"> <feFlood flood-opacity="0" result="BackgroundImageFix"></feFlood> <feColorMatrix in="SourceAlpha" type="matrix" values="0 0 0 0 0 0 0 0 0 0 0 0 0 0 0 0 0 0 127 0" result="hardAlpha"></feColorMatrix> <feOffset></feOffset> <feGaussianBlur stdDeviation="2.5"></feGaussianBlur> <feComposite in2="hardAlpha" operator="out"></feComposite> <feColorMatrix type="matrix" values="0 0 0 0 0.384314 0 0 0 0 0.878431 0 0 0 0 0 0 0 0 0.46 0"></feColorMatrix> <feBlend mode="normal" in2="BackgroundImageFix" result="effect1_dropShadow_31_36"></feBlend> <feBlend mode="normal" in="SourceGraphic" in2="effect1_dropShadow_31_36" result="shape"></feBlend> </filter> </defs> </svg> 