<?xml version="1.0" encoding="UTF-8"?> <svg xmlns="http://www.w3.org/2000/svg" width="55" height="54" viewBox="0 0 55 54" fill="none"> <path d="M28.3697 21.0703H27.4015V22.1101H28.3697V21.0703Z" fill="#62E000"></path> <path d="M28.3697 18.8752H27.4015V19.915H28.3697V18.8752Z" fill="#62E000"></path> <path d="M27.111 23.1499V24.3052H28.3697V23.1499H27.111Z" fill="#62E000"></path> <path d="M39.7943 23.1499H38.8261V24.3052H39.7943V23.1499Z" fill="#62E000"></path> <path d="M36.0183 23.1499H35.0502V24.3052H36.0183V23.1499Z" fill="#62E000"></path> <path d="M32.1456 23.1499H31.1774V24.3052H32.1456V23.1499Z" fill="#62E000"></path> <path d="M30.2092 23.1499H29.241V24.3052H30.2092V23.1499Z" fill="#62E000"></path> <path d="M34.082 23.1499H33.1138V24.3052H34.082V23.1499Z" fill="#62E000"></path> <path d="M37.8579 23.1499H36.8897V24.3052H37.8579V23.1499Z" fill="#62E000"></path> <path d="M41.7307 23.1499H40.7625V24.3052H41.7307V23.1499Z" fill="#62E000"></path> <path d="M41.7307 25.4605H40.7625V26.7313H41.7307V25.4605Z" fill="#62E000"></path> <path d="M41.7307 28.0022H40.7625V29.273H41.7307V28.0022Z" fill="#62E000"></path> <path d="M16.6546 23.1499H15.6864V24.3052H16.6546V23.1499Z" fill="#62E000"></path> <path d="M18.5909 23.1499H17.6228V24.3052H18.5909V23.1499Z" fill="#62E000"></path> <path d="M24.3033 23.1499H23.3351V24.3052H24.3033V23.1499Z" fill="#62E000"></path> <path d="M26.1428 23.1499H25.1746V24.3052H26.1428V23.1499Z" fill="#62E000"></path> <path d="M20.5273 23.1499H19.5591V24.3052H20.5273V23.1499Z" fill="#62E000"></path> <path d="M22.3669 23.1499H21.3987V24.3052H22.3669V23.1499Z" fill="#62E000"></path> <path d="M14.7182 23.1499H13.75V24.3052H14.7182V23.1499Z" fill="#62E000"></path> <path d="M14.7182 25.576H13.75V26.8469H14.7182V25.576Z" fill="#62E000"></path> <path d="M14.7182 28.1177H13.75V29.3885H14.7182V28.1177Z" fill="#62E000"></path> <g filter="url(#filter0_d_31_71)"> <path d="M6.25 5.75H48.75V27V37.6786L38.1786 48.25H27.5H6.25V5.75Z" stroke="#62E000" stroke-width="1.25" shape-rendering="crispEdges"></path> </g> <rect x="19.9902" y="11.3752" width="15.3051" height="6.74213" stroke="white" stroke-width="1.25"></rect> <rect x="10" y="29.9285" width="15.3051" height="6.74213" stroke="#62E000" stroke-width="1.25"></rect> <rect x="29.6948" y="29.9285" width="15.3051" height="6.74213" stroke="#62E000" stroke-width="1.25"></rect> <defs> <filter id="filter0_d_31_71" x="0.625" y="0.125" width="53.75" height="53.75" filterUnits="userSpaceOnUse" color-interpolation-filters="sRGB"> <feFlood flood-opacity="0" result="BackgroundImageFix"></feFlood> <feColorMatrix in="SourceAlpha" type="matrix" values="0 0 0 0 0 0 0 0 0 0 0 0 0 0 0 0 0 0 127 0" result="hardAlpha"></feColorMatrix> <feOffset></feOffset> <feGaussianBlur stdDeviation="2.5"></feGaussianBlur> <feComposite in2="hardAlpha" operator="out"></feComposite> <feColorMatrix type="matrix" values="0 0 0 0 0.384314 0 0 0 0 0.878431 0 0 0 0 0 0 0 0 0.46 0"></feColorMatrix> <feBlend mode="normal" in2="BackgroundImageFix" result="effect1_dropShadow_31_71"></feBlend> <feBlend mode="normal" in="SourceGraphic" in2="effect1_dropShadow_31_71" result="shape"></feBlend> </filter> </defs> </svg> 