<?xml version="1.0" encoding="UTF-8"?> <svg xmlns="http://www.w3.org/2000/svg" width="93" height="129" viewBox="0 0 93 129" fill="none"> <path d="M85.4149 37.824L41.5656 38.0653L27.7435 64.0472L26.5074 63.3341L40.7296 36.5997L85.4073 36.3527L85.4149 37.824" fill="url(#paint0_linear_63_32)"></path> <path d="M89.5589 40.0818C87.9571 41.0632 85.8935 40.5091 84.9488 38.8412C84.0045 37.1753 84.5376 35.0288 86.1381 34.0467C87.7406 33.064 89.8042 33.6181 90.7465 35.2845C91.692 36.9511 91.1601 39.0984 89.5589 40.0818Z" fill="url(#paint1_linear_63_32)"></path> <path d="M-111.392 64.7364L27.7304 62.8355L27.7439 64.3054L-111.378 66.2065" fill="url(#paint2_linear_63_32)"></path> <path d="M-111.392 60.183L18.9804 58.282L18.9939 59.752L-111.378 61.653" fill="url(#paint3_linear_63_32)"></path> <defs> <linearGradient id="paint0_linear_63_32" x1="38.5701" y1="40.0814" x2="74.5586" y2="58.751" gradientUnits="userSpaceOnUse"> <stop stop-color="white"></stop> <stop offset="1" stop-color="#CBDDFF" stop-opacity="0.32"></stop> </linearGradient> <linearGradient id="paint1_linear_63_32" x1="84.9329" y1="35.3114" x2="90.8788" y2="38.6096" gradientUnits="userSpaceOnUse"> <stop stop-color="white"></stop> <stop offset="1" stop-color="#CBDDFF" stop-opacity="0.32"></stop> </linearGradient> <linearGradient id="paint2_linear_63_32" x1="-148.598" y1="19.1375" x2="5.4104" y2="104.567" gradientUnits="userSpaceOnUse"> <stop stop-color="white"></stop> <stop offset="1" stop-color="#CBDDFF" stop-opacity="0.32"></stop> </linearGradient> <linearGradient id="paint3_linear_63_32" x1="-157.348" y1="14.584" x2="-3.3396" y2="100.014" gradientUnits="userSpaceOnUse"> <stop stop-color="white"></stop> <stop offset="1" stop-color="#CBDDFF" stop-opacity="0.32"></stop> </linearGradient> </defs> </svg> 